<?xml version="1.0" encoding="UTF-8"?> <svg xmlns="http://www.w3.org/2000/svg" viewBox="0 0 532.31 139.4"><defs><style>.cls-1{fill:#c71617;}.cls-2{fill:#fff;}</style></defs><g id="Layer_2" data-name="Layer 2"><g id="Layer_1-2" data-name="Layer 1"><path class="cls-1" d="M22.5,15.85v11.8H11.25V83H22.5V94.17H0V15.85Z"></path><path class="cls-2" d="M269.58,94.14,250.84,15.89h16.35l2.39,13H285.1l3.21-13h15.52l-17.9,78.25Zm2.48-53.82,6.52,34.26,4.86-34.26Z"></path><path class="cls-2" d="M229.63,94.14V38.66q0-6.72-2.64-8.69a10.38,10.38,0,0,0-6.37-2q-4.76,0-5.64,2.33a14.2,14.2,0,0,0-.88,5V94.14H199.51V33.9q0-9,3.47-13.14a16,16,0,0,1,7.71-5.39,22.25,22.25,0,0,1,5.22-1c1.69-.1,3.06-.15,4.09-.15h1.24c1.24,0,2.78,0,4.61.15a20,20,0,0,1,5.64,1.19A18.2,18.2,0,0,1,240,21.79q3.87,4.76,4.29,15.22V94.14Z"></path><path class="cls-2" d="M186.47,18.38V33.8A14.91,14.91,0,0,0,182.85,31a14,14,0,0,0-4-1.5,10.22,10.22,0,0,0-1.5-.31,11.22,11.22,0,0,0-1.5-.1,10.57,10.57,0,0,0-6.52,2.07,8,8,0,0,0-3.21,5.9v.72a7.92,7.92,0,0,0,2.28,5.48,30.92,30.92,0,0,0,5.07,4.46q2,1.44,3.77,2.63A18.18,18.18,0,0,1,180,52.43a24.86,24.86,0,0,1,7.19,9,25.42,25.42,0,0,1,2.33,10.61c0,.76,0,1.5-.1,2.23s-.14,1.46-.21,2.22-.29,1.5-.47,2.23-.36,1.46-.57,2.22A18.14,18.14,0,0,1,181,90.93a19.87,19.87,0,0,1-11.38,3.41,28.27,28.27,0,0,1-3.31-.2,29.78,29.78,0,0,1-3.32-.62c-1.1-.35-2.2-.75-3.31-1.19a29.56,29.56,0,0,1-3.31-1.61V76.23a23.11,23.11,0,0,0,5.85,3.57A15.49,15.49,0,0,0,167.11,81a7.31,7.31,0,0,0,5.7-2.28,7.58,7.58,0,0,0,2.07-5.27,4.75,4.75,0,0,0-.06-.78,6.62,6.62,0,0,0-.15-.78,5.43,5.43,0,0,0-.47-1.6c-.24-.52-.5-1-.77-1.5a21.46,21.46,0,0,0-4-4.5q-2.37-2-5-4a3.3,3.3,0,0,0-.41-.36,3.19,3.19,0,0,0-.42-.26q-1-.72-2.07-1.5c-.68-.52-1.34-1.05-2-1.6a24.19,24.19,0,0,1-6.47-8.13,22.24,22.24,0,0,1-2.23-9.78,20.48,20.48,0,0,1,.32-4.5,24.59,24.59,0,0,1,1.34-4.71c.21-.48.41-1,.62-1.5s.45-1.05.73-1.6A22,22,0,0,1,161.21,18a19.92,19.92,0,0,1,11.6-3.36,27.81,27.81,0,0,1,6.52.83,31.25,31.25,0,0,1,7.14,2.79Z"></path><path class="cls-2" d="M140.83,18.38V33.8A14.77,14.77,0,0,0,137.2,31a13.9,13.9,0,0,0-4-1.5,10.49,10.49,0,0,0-1.5-.31,11.22,11.22,0,0,0-1.5-.1,10.57,10.57,0,0,0-6.52,2.07,8,8,0,0,0-3.21,5.9v.72a8,8,0,0,0,2.27,5.48,31.41,31.41,0,0,0,5.08,4.46q2,1.44,3.77,2.63a18.7,18.7,0,0,1,2.75,2.13,24.86,24.86,0,0,1,7.19,9,25.42,25.42,0,0,1,2.33,10.61c0,.76,0,1.5-.11,2.23s-.13,1.46-.2,2.22-.29,1.5-.47,2.23-.36,1.46-.57,2.22a18.14,18.14,0,0,1-7.14,9.94A19.87,19.87,0,0,1,124,94.34a28.44,28.44,0,0,1-3.32-.2,30,30,0,0,1-3.31-.62c-1.1-.35-2.21-.75-3.31-1.19a29.56,29.56,0,0,1-3.31-1.61V76.23a23.11,23.11,0,0,0,5.85,3.57A15.43,15.43,0,0,0,121.47,81a7.27,7.27,0,0,0,5.69-2.28,7.53,7.53,0,0,0,2.07-5.27,4.8,4.8,0,0,0,0-.78,6.62,6.62,0,0,0-.15-.78,5.43,5.43,0,0,0-.47-1.6c-.24-.52-.5-1-.77-1.5a21.46,21.46,0,0,0-4-4.5c-1.59-1.35-3.24-2.68-5-4a3.3,3.3,0,0,0-.41-.36,3.19,3.19,0,0,0-.42-.26q-1-.72-2.07-1.5c-.69-.52-1.34-1.05-2-1.6a24.19,24.19,0,0,1-6.47-8.13,22.24,22.24,0,0,1-2.23-9.78,21.09,21.09,0,0,1,.31-4.5,25.39,25.39,0,0,1,1.35-4.71c.21-.48.41-1,.62-1.5s.45-1.05.72-1.6A22.11,22.11,0,0,1,115.57,18a19.91,19.91,0,0,1,11.59-3.36,27.75,27.75,0,0,1,6.52.83,31.14,31.14,0,0,1,7.15,2.79Z"></path><path class="cls-2" d="M81.32,94.14V15.89H96V94.14Z"></path><path class="cls-2" d="M70.76,94.14H39V79.44H54.41V63.19h-13V47.67h13V30.59H39V15.89H70.76Z"></path><path class="cls-1" d="M336.92,15.88a17.5,17.5,0,0,1,4.29.88,18.21,18.21,0,0,1,5,2.64,20.68,20.68,0,0,1,3.21,2.74,29.16,29.16,0,0,1,3,3.68,22.62,22.62,0,0,1,2.69,5.69,23.69,23.69,0,0,1,1.25,7.76v1.45a20.75,20.75,0,0,1-2.28,8,15.71,15.71,0,0,1-6.63,6.42,16.65,16.65,0,0,1,8.08,7.24,21,21,0,0,1,2.58,10.14v1.14a23.08,23.08,0,0,1-5.89,14.13q-5.49,6.36-15.32,6.36H316.53V15.88Zm-4.87,13.87V49.31a1.6,1.6,0,0,0,.73.26,7.55,7.55,0,0,0,.83,0,8.37,8.37,0,0,0,1.29-.1,7.59,7.59,0,0,0,1.29-.31,8.67,8.67,0,0,0,3.83-3c1.17-1.49,1.76-3.71,1.76-6.68,0-4.48-.81-7.23-2.43-8.23s-4.05-1.5-7.3-1.5Zm0,31V81.91a1.76,1.76,0,0,0,.78.21h.78a8.17,8.17,0,0,0,6.62-2.85q2.38-2.85,2.38-7.81a12.21,12.21,0,0,0-2.48-7.4,8,8,0,0,0-6.83-3.36h-.62a2,2,0,0,0-.63.1Z"></path><path class="cls-1" d="M395.6,15.88l18.73,78.24H398l-2.38-13H380.08l-3.21,13H361.34l17.91-78.24ZM393.12,69.7,386.6,35.44,381.73,69.7Z"></path><path class="cls-1" d="M440.42,15.88q10.44.1,17.43,6.31t7,16.67a39.19,39.19,0,0,1-.83,6.83q-.83,4.35-5.79,9a23.64,23.64,0,0,1-2.12,1.86c-.8.63-1.68,1.25-2.64,1.87l13.86,35.7H451.08L437.21,57.49V94.12H420.85V15.88Zm-4,13V50.14a.82.82,0,0,0,.36.1h1.09q5,0,7.35-1.65A10.53,10.53,0,0,0,448.59,45a10.61,10.61,0,0,0,.72-2.43,11.52,11.52,0,0,0,.21-1.91v-.73a.76.76,0,0,1-.1-.31v-1q.1-4.45-2-6.52a9.7,9.7,0,0,0-4.55-2.69,10.86,10.86,0,0,0-2.07-.42,18.49,18.49,0,0,0-1.86-.1c-.42,0-.78,0-1.09.05a6,6,0,0,1-.78.05,3.52,3.52,0,0,0-.72.1Z"></path><path class="cls-2" d="M503.33,15.85V94.17h-22.5V83h11.25V27.65H480.83V15.85Z"></path><path class="cls-2" d="M530.1,17.08A9.11,9.11,0,1,1,521,8.21,8.9,8.9,0,0,1,530.1,17.08Zm-15.94,0a6.86,6.86,0,0,0,6.92,7.07,6.78,6.78,0,0,0,6.75-7,6.84,6.84,0,1,0-13.67-.05Zm5.46,4.64h-2.06V12.86a18.18,18.18,0,0,1,3.41-.27,5.52,5.52,0,0,1,3.08.65,2.48,2.48,0,0,1,.86,1.95,2.27,2.27,0,0,1-1.84,2v.11a2.6,2.6,0,0,1,1.63,2.16,6.93,6.93,0,0,0,.64,2.21h-2.21a7.51,7.51,0,0,1-.7-2.16c-.17-1-.71-1.4-1.84-1.4h-1Zm0-5h1c1.14,0,2.06-.38,2.06-1.3s-.6-1.35-1.89-1.35a4.65,4.65,0,0,0-1.14.11Z"></path><path class="cls-2" d="M144.86,112.6h1.88v7.88h9.56V112.6h1.88v18.78H156.3v-9.06h-9.56v9.06h-1.88Z"></path><path class="cls-2" d="M162.77,112.6h10.76v1.84h-8.89v5.88h8.81v1.84h-8.81v7.38h8.81v1.84H162.77Z"></path><path class="cls-2" d="M176.77,112.6h1.88v17h7.23v1.81h-9.11Z"></path><path class="cls-2" d="M186.91,127.88l1.6-.95q1.68,3.1,3.89,3.1a3.78,3.78,0,0,0,1.78-.44,3.2,3.2,0,0,0,1.26-1.18,3.08,3.08,0,0,0,.44-1.57,3.21,3.21,0,0,0-.64-1.85,15.32,15.32,0,0,0-3.22-3,16.75,16.75,0,0,1-2.92-2.56,4.69,4.69,0,0,1-1-2.88,4.35,4.35,0,0,1,.59-2.23,4.14,4.14,0,0,1,1.65-1.59,4.75,4.75,0,0,1,2.32-.58,4.9,4.9,0,0,1,2.48.66,8.43,8.43,0,0,1,2.45,2.41l-1.53,1.17a7.42,7.42,0,0,0-1.81-1.86,3.19,3.19,0,0,0-1.63-.44,2.58,2.58,0,0,0-1.86.69,2.25,2.25,0,0,0-.72,1.7,2.89,2.89,0,0,0,.26,1.18,4.28,4.28,0,0,0,.93,1.25c.25.24,1.06.87,2.43,1.88A13.57,13.57,0,0,1,197,124a5.09,5.09,0,0,1,.91,2.82,4.82,4.82,0,0,1-1.55,3.55,5.26,5.26,0,0,1-3.78,1.51,5.53,5.53,0,0,1-3.1-.92A8.42,8.42,0,0,1,186.91,127.88Z"></path><path class="cls-2" d="M201.61,112.6h1.88v18.78h-1.88Z"></path><path class="cls-2" d="M207.8,131.38V112.6h.41l12.5,14.4V112.6h1.86v18.78h-.43l-12.39-14.22v14.22Z"></path><path class="cls-2" d="M227.14,112.6h1.91v7.05l7.51-7.05h2.52l-9,8.43,9.73,10.35h-2.5l-8.24-8.75v8.75h-1.91Z"></path><path class="cls-2" d="M242.32,112.6h1.88v18.78h-1.88Z"></path><path class="cls-2" d="M254.29,123.54h7v1.56h-7Z"></path><path class="cls-2" d="M271.67,112.6h9.41v1.84h-7.54v5.88h7.54v1.84h-7.54v9.22h-1.87Z"></path><path class="cls-2" d="M284.08,112.6H286v18.78h-1.87Z"></path><path class="cls-2" d="M290.27,131.38V112.6h.41l12.5,14.4V112.6H305v18.78h-.42l-12.4-14.22v14.22Z"></path><path class="cls-2" d="M309.6,112.6h1.88v17h7.23v1.81H309.6Z"></path><path class="cls-2" d="M329.36,112.6l8.76,18.78h-2l-2.95-6.18H325l-2.92,6.18H320l8.88-18.78Zm-.24,4-3.22,6.8h6.42Z"></path><path class="cls-2" d="M341,131.38V112.6h.41L354,127V112.6h1.85v18.78h-.42L343,117.16v14.22Z"></path><path class="cls-2" d="M360.38,131.38V112.6h3.89a19.62,19.62,0,0,1,6.12.68,8.13,8.13,0,0,1,4.27,3.32,10.12,10.12,0,0,1,1.54,5.63,10,10,0,0,1-1.22,5,7.89,7.89,0,0,1-3.17,3.16,12,12,0,0,1-5.46,1Zm1.8-1.77h2.17a19.94,19.94,0,0,0,5.4-.49,6.22,6.22,0,0,0,3.33-2.48,7.6,7.6,0,0,0,1.21-4.38,8.07,8.07,0,0,0-1.31-4.64,6.64,6.64,0,0,0-3.67-2.65,22.51,22.51,0,0,0-5.81-.53h-1.32Z"></path></g></g></svg> 